# xmcd
#
# Track frame offsets: 
#        150
#        3707
#        22136
#        32312
#        47124
#        67223
#        80061
#        93811
#        106498
#        123489
#        135960
#        146118
#        167620
#
# Disc length: 2627 seconds
#
# Revision: 0
# Processed by: cddbd v1.5.2PL0 Copyright (c) Steve Scherf et al.
# Submitted via: ExactAudioCopyFreeDBPlugin 1.0
#
DISCID=b00a410d
DTITLE=Sam Baker - Cotton
DYEAR=2009
DGENRE=Folk
TTITLE0=Dixie
TTITLE1=Cotton
TTITLE2=Moon
TTITLE3=Mennonite
TTITLE4=Signs
TTITLE5=Palestine II
TTITLE6=Who's gonna be your man?
TTITLE7=Say the right words
TTITLE8=Angel hair
TTITLE9=Not another Mary
TTITLE10=Palestine I
TTITLE11=Bridal Chest
TTITLE12=Snow
EXTD=
EXTT0=
EXTT1=
EXTT2=
EXTT3=
EXTT4=
EXTT5=
EXTT6=
EXTT7=
EXTT8=
EXTT9=
EXTT10=
EXTT11=
EXTT12=
PLAYORDER=
